<?xml version="1.0" encoding="utf-8"?>
<!-- Generator: Adobe Illustrator 16.0.0, SVG Export Plug-In . SVG Version: 6.00 Build 0)  -->
<!DOCTYPE svg PUBLIC "-//W3C//DTD SVG 1.1//EN" "http://www.w3.org/Graphics/SVG/1.1/DTD/svg11.dtd">
<svg version="1.1" xmlns="http://www.w3.org/2000/svg" xmlns:xlink="http://www.w3.org/1999/xlink" x="0px" y="0px"
	 width="345.803px" height="207.597px" viewBox="0 0 345.803 207.597" enable-background="new 0 0 345.803 207.597"
	 xml:space="preserve">
<g id="Layer_1">
	<path fill="#FBC38F" d="M14.803,57.744v111h0.24c0.53,21,24.18,38.853,53.26,38.853s52.73-17.853,53.26-38.853h0.24v-111H14.803z"
		/>
	<path opacity="0.5" fill="#393E41" d="M121.803,88.44c-65.489,0-98.65-12.796-98.65-29.116c0-12.24,21.996-22.15,49.182-22.15
		C110.639,37.174,121.803,59.871,121.803,88.44z"/>
	<ellipse fill="#393E41" cx="109.512" cy="118.048" rx="8.808" ry="8.427"/>
	<ellipse fill="#393E41" cx="64.512" cy="118.048" rx="8.808" ry="8.427"/>
	<path fill="#393E41" d="M82.803,98.244c0,3.038-2.462,5.5-5.5,5.5h-27c-3.038,0-5.5-2.462-5.5-5.5l0,0c0-3.038,2.462-5.5,5.5-5.5
		h27C80.341,92.744,82.803,95.207,82.803,98.244L82.803,98.244z"/>
	<path fill="#393E41" d="M133.803,98.244c0,3.038-2.462,5.5-5.5,5.5h-22c-3.038,0-5.5-2.462-5.5-5.5l0,0c0-3.038,2.462-5.5,5.5-5.5
		h22C131.341,92.744,133.803,95.207,133.803,98.244L133.803,98.244z"/>
	<circle fill="#FBC38F" cx="15.095" cy="120.295" r="15.095"/>
	<circle fill="#F9A7BB" cx="15.095" cy="120.295" r="5.056"/>
	<path fill="#393E41" d="M148.243,86.854c-70.8,0-128.09-13.21-128.09-29.53c0-12.24,23.78-22.15,53.17-22.15
		C114.733,35.174,148.243,58.284,148.243,86.854z"/>
	<path fill="#393E41" d="M31.191,62.816c0,13.226-7.418,23.928-16.585,23.928L31.191,62.816z"/>
	<g id="XMLID_1_">
		<g>
		</g>
		<g>
		</g>
	</g>
	
		<ellipse transform="matrix(-0.9606 -0.2778 0.2778 -0.9606 21.5014 136.16)" fill="#393E41" cx="20.398" cy="66.557" rx="7.793" ry="21.188"/>
	<path fill="#393E41" d="M107.803,169.744c0,1.79-0.65,3.49-1.82,5.04c-3.53,4.68-11.83,7.96-21.51,7.96
		c-8.58,0-16.09-2.58-20.14-6.44c-2.03-1.909-3.2-4.159-3.2-6.56c0-7.18,10.45-13,23.34-13S107.803,162.564,107.803,169.744z"/>
	<path fill="#FF5964" d="M105.983,174.784c-3.53,4.68-11.83,7.96-21.51,7.96c-8.58,0-16.09-2.58-20.14-6.44
		c4.22-6.31,12.22-10.56,21.39-10.56C94.133,165.744,101.553,169.324,105.983,174.784z"/>
	<path fill="none" stroke="#707A7F" stroke-width="7" stroke-miterlimit="10" d="M88.272,44.423
		c3.002,0.632,5.923,1.392,8.751,2.268c5.517,1.708,10.679,3.864,15.389,6.4c7.124,3.836,13.214,8.542,17.937,13.889
		c1.278,1.446,2.455,2.939,3.525,4.475"/>
</g>
<g id="Layer_2">
	<path fill="#FFE74C" stroke="#FFE74C" stroke-miterlimit="10" d="M345.303,18.064c0-9.29-5.373-16.82-12-16.82h-157
		c-6.627,0-12,7.531-12,16.82v161.192c0,9.289,5.373,16.987,12,16.987h157c6.627,0,12-7.698,12-16.987V18.064z"/>
	<g id="XMLID_2_">
		<g>
			<path fill="#FFE74C" d="M175.02,156.284l-0.15,0.1c-19,12.34-39.86,14-46.83,3.76c3.81,4.82,21.81-1.01,40.66-13.26l0.14-0.09
				L175.02,156.284z"/>
		</g>
		<g>
			<path fill="none" stroke="#FFE74C" stroke-miterlimit="10" d="M128.04,160.144c6.97,10.24,27.83,8.58,46.83-3.76"/>
			<path fill="none" stroke="#FFE74C" stroke-miterlimit="10" d="M127.87,159.903c0.05,0.08,0.11,0.16,0.17,0.24
				c3.81,4.82,21.81-1.01,40.66-13.26"/>
			<polyline fill="none" stroke="#FFE74C" stroke-miterlimit="10" points="168.67,146.524 168.84,146.794 175.02,156.284 
				175.21,156.584 			"/>
		</g>
	</g>
	<rect x="181.771" y="2.244" fill="none" width="163.533" height="169"/>
	<text transform="matrix(1 0 0 1 181.7705 78.396)"><tspan x="0" y="0" fill="#FFFFFF" font-family="'FredokaOne-Regular'" font-size="24">Alexa, open </tspan><tspan x="0" y="28.8" fill="#FFFFFF" font-family="'FredokaOne-Regular'" font-size="24">up Smart</tspan><tspan x="0" y="57.6" fill="#FFFFFF" font-family="'FredokaOne-Regular'" font-size="24">Flash.</tspan></text>
</g>
</svg>
