<?xml version="1.0" encoding="utf-8"?>
<!-- Generator: Adobe Illustrator 16.0.0, SVG Export Plug-In . SVG Version: 6.00 Build 0)  -->
<!DOCTYPE svg PUBLIC "-//W3C//DTD SVG 1.1//EN" "http://www.w3.org/Graphics/SVG/1.1/DTD/svg11.dtd">
<svg version="1.1" xmlns="http://www.w3.org/2000/svg" xmlns:xlink="http://www.w3.org/1999/xlink" x="0px" y="0px"
	 width="529.916px" height="130.452px" viewBox="0 0 529.916 130.452" enable-background="new 0 0 529.916 130.452"
	 xml:space="preserve">
<g id="Layer_2">
	<g>
		<text transform="matrix(0.473 0 -0.3679 0.9299 396.3813 96.2114)" fill="#FF5964" font-family="'Arial-Black'" font-size="120">SH</text>
		<g>
			<text transform="matrix(0.473 0 -0.3679 0.9299 385.1709 96.2114)" fill="#FFE74C" font-family="'Arial-Black'" font-size="120">SH</text>
		</g>
	</g>
	<g>
		<g>
			<text transform="matrix(0.473 0 -0.3679 0.9299 250.6719 95.7368)" fill="#FF5964" font-family="'Arial-Black'" font-size="120">FL</text>
		</g>
		<text transform="matrix(0.473 0 -0.3679 0.9299 243.3057 95.7368)" fill="#FFE74C" font-family="'Arial-Black'" font-size="120">FL</text>
	</g>
	<g>
		<g>
			<g>
			</g>
		</g>
		<g>
			<g>
			</g>
		</g>
		<g>
			<g>
				<g>
					<path fill="#FF5964" d="M407.147,30.189l-12.633,51.914c-1.521,6.216-7.789,11.602-14.006,11.602h-30
						c-6.215,0-10.016-5.269-8.494-11.484l12.633-51.914c1.523-6.216,7.791-11.602,14.006-11.602h30
						C404.87,18.705,408.67,23.974,407.147,30.189z"/>
				</g>
			</g>
		</g>
	</g>
	<g>
		<path fill="#FFE74C" d="M396.147,29.081l-12.633,54.574c-1.521,6.579-7.789,11.907-14.006,11.907h-30
			c-6.216,0-10.017-5.328-8.495-11.907l12.633-54.574c1.523-6.579,7.792-11.907,14.006-11.907h30
			C393.87,17.174,397.67,22.502,396.147,29.081z"/>
	</g>
	<g>
		<g>
			<text transform="matrix(0.473 0 -0.3679 0.9299 24.2046 95.7368)" fill="#FF5964" font-family="'Arial-Black'" font-size="120">SMART</text>
		</g>
	</g>
	<g>
		<text transform="matrix(0.473 0 -0.3679 0.9299 14.2046 95.7368)" fill="#FFE74C" font-family="'Arial-Black'" font-size="120">SMART</text>
	</g>
</g>
<g id="Layer_3">
	<g>
		<g>
			<g>
				<g>
					<g>
						<g>
							<polygon fill="#FF5964" points="385.331,50.131 341.831,90.802 355.496,60.801 355.331,60.631 341.831,60.631 
								385.171,19.472 370.836,50.131 							"/>
						</g>
					</g>
				</g>
			</g>
		</g>
	</g>
</g>
</svg>
